<svg width="978" height="494" viewBox="0 0 978 494" fill="none" xmlns="http://www.w3.org/2000/svg">
<path d="M130.238 402.519C125.548 419.413 138.802 458.632 140.841 458.431C142.88 458.632 145.53 414.988 140.841 402.519" stroke="black"/>
<path d="M69.7496 402.519C65.2108 419.413 66.548 458.632 68.5212 458.431C70.4946 458.632 84.5498 414.988 80.0111 402.519" stroke="black"/>
<path d="M154.609 319.204C155.916 310.441 149.128 302.565 140.268 302.565H70.6783C61.8687 302.565 55.0946 310.357 56.319 319.081L59.6899 343.098C60.6947 350.258 66.8197 355.583 74.0492 355.583H136.686C143.868 355.583 149.968 350.325 151.028 343.222L154.609 319.204Z" stroke="black"/>
<rect x="-0.5" y="0.5" width="103.244" height="12.2675" rx="6.13373" transform="matrix(-1 0 0 1 156.67 384.513)" stroke="black"/>
<path d="M118.787 361.287C118.959 359.802 117.798 358.5 116.304 358.5H75.765C74.3539 358.5 73.2224 359.667 73.2662 361.078L73.7683 377.251C73.9611 383.461 79.0505 388.394 85.2628 388.394H91.7316C93.6646 388.394 95.2316 389.961 95.2316 391.894V438C95.2316 439.381 96.3509 440.5 97.7316 440.5H109.187C109.441 440.5 109.655 440.31 109.684 440.057L118.787 361.287Z" fill="black" stroke="black"/>
<path d="M70.0103 419.577C66.6812 410.479 104.088 357.661 114.551 358.452C121.684 358.452 134.544 357.896 137.747 361.502C141.575 365.812 133.399 376.367 124.907 383.259C112.7 394.73 86.195 418.622 77.8249 422.42C77.8249 422.42 76.4781 421.792 70.0103 419.577Z" fill="black" stroke="black"/>
<path d="M115.499 392.568C107.194 400.621 105.074 402.992 94.6497 411.521" stroke="white"/>
<path d="M107.67 451.324C107.67 451.324 105.17 450 109.17 443.5L102.17 445L96.1703 443.5C98.0656 444.922 97.2822 449.429 95.5974 451.324C91.8067 455.589 89.1703 456 90.3852 457.958H112.67C114.67 457 108.67 452.5 107.67 451.324Z" fill="black"/>
<path d="M83.7515 389.251C90.3853 379.775 102.863 364.612 111.234 357.978" stroke="white"/>
<path d="M77.5661 423.924C77.5661 423.924 73.3997 424.541 71.0521 425.112L68.6705 421C68.6705 421 65.171 423.924 64.2985 426.293C61.171 427.609 55.6253 432.669 53.4 439.561C62.092 441.494 69.723 435.057 70.671 434.109C74.5789 430.202 77.092 426.768 77.5661 423.924Z" fill="black" stroke="black"/>
<path d="M135.4 356.083H73.8007C67.6406 319.597 71.0505 301.625 73.7944 294.92C74.7487 292.588 96.0711 292.588 96.0711 294.92C96.0711 303.449 111.234 304.397 111.234 294.92C115.979 293.536 132.485 292.001 135.393 294.92C142.981 302.539 140.619 328.163 135.4 356.083Z" fill="#4BF7A4"/>
<path d="M76.1696 327.78C76.1696 331.049 76.1696 333.852 76.1696 342.549C76.1696 345.31 78.4055 347.554 81.1669 347.554C95.4316 347.554 116.164 347.554 127.181 347.554C129.75 347.554 131.895 345.606 131.987 343.039C132.242 335.937 131.923 326.318 131.773 319.382C131.714 316.621 129.474 314.385 126.713 314.385C114.206 314.385 93.974 314.385 81.1606 314.385C78.3992 314.385 76.1696 316.623 76.1696 319.385C76.1696 319.419 76.1696 319.453 76.1696 319.488" stroke="#F8F9FF"/>
<rect width="55.9129" height="5.68606" rx="2.84303" transform="matrix(-1 0 0 1 132.083 350.397)" fill="white"/>
<circle r="5.21222" transform="matrix(-1 0 0 1 104.127 330.97)" fill="white"/>
<path d="M115.499 286.902C114.74 289.177 122.606 287.85 122.606 285.954C124.028 286.902 128.766 286.902 128.766 284.059C132.557 285.007 135.874 280.268 133.504 277.425C139.19 275.53 136.347 269.37 133.504 268.423C140.328 265.39 136.347 259.893 133.504 257.998C140.138 252.786 133.504 243.783 128.766 247.1C129.714 240.466 124.028 238.571 119.763 242.361C122.606 233.832 107.443 229.568 104.6 237.623C101.283 229.094 88.0159 233.358 91.3328 242.361C83.7514 236.202 75.6962 243.783 79.4869 249.943C72.3793 248.047 68.1147 257.998 71.9055 261.315C66.6932 263.684 69.5363 270.634 71.9055 271.265C68.1704 275.5 72.8531 278.373 75.6962 278.373C71.1473 283.301 78.5392 285.007 80.4345 283.112C80.4345 288.04 84.0673 287.06 86.1206 285.954C89.4375 288.797 90.859 287.428 91.8067 286.007M115.499 286.902C119.763 282.164 120.237 280.269 121.185 275.53C119.289 277.426 112.655 276.478 114.551 271.265C110.76 273.635 106.496 269.844 107.917 267.001C103.653 266.053 103.179 264.158 101.283 261.315C100.81 264.158 99.8619 264.632 97.0188 266.527C97.777 270.318 94.4917 270.95 92.7543 271.265C94.1758 274.583 89.9113 276.952 87.0682 276.478C87.5421 280.269 89.9113 283.638 91.8067 286.007M115.499 286.902C106.022 294.484 94.7981 289.745 91.8067 286.007" stroke="black"/>
<path d="M122.606 285.954C122.606 287.85 114.74 289.177 115.499 286.902C119.763 282.164 120.237 280.269 121.185 275.53C119.289 277.426 112.655 276.478 114.551 271.265C110.76 273.635 106.496 269.844 107.917 267.001C103.653 266.053 103.179 264.158 101.283 261.315C100.81 264.158 99.8619 264.632 97.0188 266.527C97.777 270.318 94.4917 270.95 92.7543 271.265C94.1758 274.583 89.9113 276.952 87.0682 276.478C87.0682 279 90.6704 285 91.6704 285.954C90.6704 288.5 88.1704 287.5 86.1206 285.954C84.0673 287.06 80.4345 288.04 80.4345 283.112C78.5392 285.007 71.1473 283.301 75.6962 278.373C72.8531 278.373 68.1704 275.5 71.9055 271.265C69.5363 270.633 66.6932 263.684 71.9055 261.315C68.1147 257.998 72.3793 248.047 79.4869 249.943C75.6962 243.783 83.7514 236.202 91.3328 242.361C88.0159 233.358 101.283 229.094 104.6 237.623C107.443 229.568 122.606 233.832 119.763 242.361C124.028 238.571 129.714 240.466 128.766 247.1C133.504 243.783 140.138 252.786 133.504 257.998C136.347 259.893 140.328 265.39 133.504 268.423C136.347 269.37 139.19 275.53 133.504 277.425C135.874 280.268 132.557 285.007 128.766 284.059C128.766 286.902 124.028 286.902 122.606 285.954Z" fill="black" stroke="black"/>
<circle r="6.13373" transform="matrix(-1 0 0 1 112.182 274.582)" stroke="black"/>
<circle r="6.13373" transform="matrix(-1 0 0 1 95.1246 274.582)" stroke="black"/>
<path d="M106.022 275.056C106.022 273.635 101.284 273.161 101.284 275.056" stroke="black"/>
<path d="M311.834 214.486C308.82 217.233 295.908 215.562 295.908 210.069C291.173 207.056 287.73 204.043 285.577 193.282C272.234 200.599 263.379 220.969 260.629 234.134C270.943 211.36 285.992 210.648 295.908 210.069C247.7 212.815 249.278 279.753 257.17 312.975C259.276 331.417 293.756 317.291 308.82 312.975C328.62 303.95 322.307 241.561 311.834 214.486Z" fill="#37B3CC"/>
<path d="M310.112 311.798C272.665 327.102 257.169 302.774 257.169 310.229C258.03 319.646 263.195 320.823 266.639 320.823" stroke="black" stroke-linecap="round" stroke-linejoin="round"/>
<rect width="154.953" height="78.3373" transform="matrix(-1 0 0 1 362.623 222.121)" fill="#37B3CC"/>
<path d="M322.163 221.69C291.517 221.69 265.491 221.69 256.308 221.69" stroke="white" stroke-linecap="round" stroke-linejoin="round"/>
<path d="M321.302 300.888H255.017" stroke="white"/>
<path d="M271.373 273.772L271.856 273.9C271.799 274.115 271.607 274.266 271.385 274.271C271.163 274.277 270.964 274.135 270.897 273.924L271.373 273.772ZM286.279 218.237C270.049 228.701 265.705 240.064 265.74 249.989C265.775 260.002 270.237 268.562 271.85 273.62L270.897 273.924C269.353 269.082 264.776 260.21 264.74 249.992C264.703 239.688 269.255 228.023 285.737 217.396L286.279 218.237ZM270.89 273.643C271.354 271.902 272.324 270.747 273.52 270.016C274.703 269.293 276.083 268.998 277.367 268.915C278.654 268.831 279.877 268.957 280.774 269.102C281.224 269.174 281.595 269.252 281.855 269.312C281.985 269.342 282.087 269.368 282.158 269.387C282.193 269.396 282.221 269.403 282.24 269.408C282.249 269.411 282.257 269.413 282.262 269.414C282.265 269.415 282.267 269.416 282.268 269.416C282.269 269.416 282.27 269.417 282.27 269.417C282.271 269.417 282.271 269.417 282.271 269.417C282.271 269.417 282.271 269.417 282.134 269.898C281.997 270.379 281.997 270.379 281.997 270.379C281.997 270.379 281.997 270.379 281.997 270.379C281.997 270.379 281.997 270.379 281.996 270.378C281.996 270.378 281.995 270.378 281.993 270.377C281.989 270.377 281.984 270.375 281.976 270.373C281.961 270.369 281.937 270.362 281.906 270.354C281.844 270.338 281.75 270.314 281.629 270.287C281.388 270.231 281.039 270.157 280.615 270.089C279.763 269.951 278.62 269.835 277.432 269.913C276.241 269.99 275.038 270.26 274.042 270.869C273.06 271.469 272.253 272.413 271.856 273.9L270.89 273.643Z" fill="black"/>
<path d="M279.504 276.459C286.441 275.138 287.782 275.891 288.793 280.288C290.32 285.412 285.714 287.023 284.095 280.513C286.376 289.684 280.348 286.34 279.991 281.735C281.673 290.046 276.736 288.045 275.888 282.957C277.058 289.983 272.082 287.185 270.916 283.264C270.274 281.106 270.396 278.879 279.504 276.459Z" stroke="black"/>
<path d="M270.943 314.231C264.487 333.601 267.93 331.879 273.956 340.057C272.664 348.235 275.247 364.735 271.373 376.213C257.169 376.213 249.135 380.086 241.674 379.656C242.965 383.099 243.826 384.678 241.674 386.973C252.435 386.973 272.091 390.273 279.982 386.973C293.325 358.996 301.503 351.248 301.503 337.044" stroke="black" stroke-linecap="round" stroke-linejoin="round"/>
<path d="M305.808 313.371C299.669 321.448 301.503 327.144 301.503 340.057C301.503 353.366 302.451 371.908 299.351 379.656C303.474 398.595 301.354 416.609 299.351 425.281C296.657 427.821 294.609 425.626 290.887 427.003C290.887 417.103 286.439 391.708 288.16 383.53C289.429 377.504 286.869 377.504 286.869 376.213" stroke="black" stroke-linecap="round" stroke-linejoin="round"/>
<path d="M304.517 433.89C308.391 430.877 309.187 429.519 307.608 428.802C306.03 428.085 304.517 432.455 304.517 433.89Z" stroke="black"/>
<path d="M304.546 433.764C305.234 428.944 298.52 427.308 298.52 430.321C298.52 432.473 301.102 432.904 304.546 433.764Z" stroke="black"/>
<path d="M290.742 427.433C290.742 437.763 290.742 441.637 290.742 441.637C292.895 442.498 307.386 442.498 316.568 441.637C318.979 436.128 310.255 434.463 303.655 434.32" stroke="black" stroke-linecap="round" stroke-linejoin="round"/>
<path d="M303.655 434.32C294.616 436.042 293.325 435.468 290.743 433.459" stroke="black"/>
<path d="M326.037 433.89C329.409 433.89 332.018 433.89 334.217 433.89C338.972 433.89 342.824 437.744 342.824 442.498V442.498C342.824 447.252 338.962 451.107 334.208 451.107C326.993 451.107 326.037 451.107 326.037 451.107C326.037 442.929 316.568 442.068 316.568 451.107M281.273 433.89L256.739 433.89C251.985 433.89 248.131 436.845 248.131 441.599V441.599C248.131 446.353 251.988 451.107 256.742 451.107C263.017 451.107 265.91 451.107 266.639 451.107C266.639 441.207 276.108 442.498 276.108 451.107M316.568 451.107C316.568 460.576 325.177 458.854 325.177 454.12M316.568 451.107H276.108M276.108 451.107C276.108 458.854 268.36 459.285 267.5 454.12" stroke="black" stroke-linecap="round" stroke-linejoin="round"/>
<path d="M241.674 386.973C241.674 386.973 240.813 386.546 238.661 385.682C237.944 385.395 235.218 384.391 233.479 384.8C233.327 391.4 231.653 400.122 226.146 397.705C225.484 393.596 225.87 383.386 226.146 378.795C226.198 377.934 228.761 377.504 230.483 378.795" stroke="black" stroke-linecap="round" stroke-linejoin="round"/>
<path d="M233.908 385.663C236.916 389.54 238.273 390.338 238.992 388.761C239.711 387.183 235.343 385.664 233.908 385.663Z" stroke="black"/>
<path d="M234.034 385.692C238.853 386.386 240.497 379.674 237.484 379.67C235.332 379.667 234.898 382.249 234.034 385.692Z" stroke="black"/>
<path d="M289.839 196.569C291.865 185.886 295.784 183.245 297.698 181.38C296.186 187.66 298.73 191.013 300.611 191.667C300 190.189 300.435 185.743 304.511 182.267C305.101 185.425 318.988 186.194 317.17 180.5C318.535 179.318 320.772 181.48 324.836 180.96M289.839 196.569C284.904 188.317 279.404 175.017 286.979 173.854C283.264 168.766 293.959 164.783 297.698 167.981C305.393 157.369 324.836 161.149 320.443 167.981C329.481 170.616 328.782 176.939 334.703 169.538C336.677 175.532 326.463 180.752 324.836 180.96M289.839 196.569C302.139 223.814 330.264 204.077 324.836 180.96" stroke="black"/>
<path d="M300.611 191.667C300 190.189 300.435 185.743 304.511 182.267C305.101 185.425 318.988 186.194 317.17 180.5C318.535 179.318 320.772 181.48 324.836 180.96C326.463 180.752 336.677 175.532 334.703 169.538C328.782 176.939 329.481 170.616 320.443 167.981C324.836 161.149 305.393 157.369 297.698 167.981C293.959 164.783 283.264 168.766 286.979 173.854C275.894 171.971 284.123 188.167 289.623 196.5C293.123 184 294.623 184.5 297.698 181.38C296.186 187.66 298.73 191.013 300.611 191.667Z" fill="black" stroke="black"/>
<path d="M323.115 187.427C323.214 187.108 322.978 186.783 322.644 186.779L313.321 186.66C312.992 186.656 312.749 186.965 312.831 187.284L314.29 192.962C314.607 194.196 315.803 194.995 317.065 194.814L319.433 194.476C320.389 194.339 321.181 193.664 321.467 192.741L323.115 187.427Z" stroke="black"/>
<path d="M313.265 187.419C304.447 187.307 302.116 188.957 300.014 189.14" stroke="black"/>
<rect width="154.953" height="78.3373" transform="matrix(-1 0 0 1 569.439 82)" fill="#6B9EDF"/>
<path d="M523.592 212.676C531.181 220.295 528.819 280.919 523.6 308.838C521.901 317.927 508.939 305.927 495.439 311.427C480.11 317.673 466.939 315.927 462.001 308.838C455.84 272.353 453.116 222.471 461.994 212.676C464.939 209.427 484.271 210.344 484.271 212.676C484.271 221.205 499.434 222.153 499.434 212.676C504.179 211.292 520.685 209.757 523.592 212.676Z" fill="#6B9EDF"/>
<path d="M466.439 311C460.439 312.499 457.44 286 468.44 298C476.414 306.698 518.94 313.5 521.94 311" stroke="black" stroke-linecap="round" stroke-linejoin="round"/>
<circle r="14.5" transform="matrix(-0.205277 -0.978704 -0.978704 0.205277 494.309 253.191)" fill="white"/>
<circle r="1.5" transform="matrix(-0.205277 -0.978704 -0.978704 0.205277 470.109 244.983)" fill="white"/>
<path d="M472.507 243.116C473.912 242.508 496.438 232.988 509.604 256.792C516.554 274.237 485.034 261.435 471.371 247.441C496.148 275.452 516.862 275.705 513.475 259.556C513.211 254.503 499.75 230.824 472.507 243.116Z" fill="white"/>
<path d="M503.829 264.477C499.322 264.911 483.954 257.406 479.605 253.721" stroke="#6B9EDF" stroke-linecap="round" stroke-linejoin="round"/>
<path d="M495.92 268.179C491.411 267.768 483.32 261.189 479.731 256.759" stroke="#6B9EDF" stroke-linecap="round" stroke-linejoin="round"/>
<path d="M451.513 161.934C454.371 164.717 459.476 166.377 462.857 165.625C466.354 158.734 463.017 154.003 460.089 161.078C459.32 162.935 458.083 162.641 457.486 161.447" stroke="black" stroke-linecap="round" stroke-linejoin="round"/>
<path d="M526.085 162.032C523.108 164.691 517.935 166.131 514.588 165.233C511.39 158.197 514.927 153.612 517.55 160.809C518.239 162.698 519.488 162.456 520.136 161.289" stroke="black" stroke-linecap="round" stroke-linejoin="round"/>
<path d="M463.939 227.569C463.939 227.569 457.239 225.469 468.439 211.069C458.939 208.569 452.939 203.569 450.939 194.569C449.567 188.395 446.439 184.069 458.439 169.069C458.439 169.069 455.439 170.069 452.939 166.569C448.439 169.069 443.939 168.969 435.939 194.569C439.106 206.403 447.139 225.169 463.939 227.569Z" fill="#6B9EDF"/>
<path d="M519.939 227.569C519.939 227.569 524.51 226.006 514.155 210.988C523.782 209.036 530.44 206.569 532.572 195.518C533.44 184.069 530.38 183.841 519.26 168.177C521.613 170.816 523.44 170.069 525.939 165.569C533.26 171.677 539.939 171.569 547.547 196.378C543.707 208.011 536.849 226.136 519.939 227.569Z" fill="#6B9EDF"/>
<path d="M527.132 449.026C531.006 446.013 531.802 444.656 530.224 443.938C528.645 443.221 527.132 447.591 527.132 449.026Z" stroke="black"/>
<path d="M527.161 448.901C527.85 444.08 521.135 442.444 521.135 445.457C521.135 447.61 523.717 448.04 527.161 448.901Z" stroke="black"/>
<path d="M513.439 442.5C514.439 445.5 513.358 456.773 513.358 456.773C515.51 457.634 530.001 457.634 539.183 456.773C541.594 451.264 532.87 449.6 526.27 449.456" stroke="black" stroke-linecap="round" stroke-linejoin="round"/>
<path d="M526.271 449.456C517.232 451.178 517.022 450.578 514.439 448.569" stroke="black"/>
<path d="M469.957 450.359C474.957 448.359 478.957 449.359 481.957 450.359C493.526 460.692 458.526 459.193 469.957 450.359Z" stroke="black" stroke-linecap="round" stroke-linejoin="round"/>
<path d="M476.388 449.148C483.743 447.982 482.966 445.866 481.388 445.148C478.296 444.07 476.388 447.714 476.388 449.148Z" stroke="black"/>
<path d="M476.388 449.148C477.077 444.328 470.037 443.233 470.036 446.246C470.036 448.399 472.945 448.288 476.388 449.148Z" stroke="black"/>
<path d="M513.578 311.5C516.296 321.5 516.296 325.5 516.296 335.5C518.47 352.5 519.558 361 519.558 381.5C526.082 400.5 519.014 424 522.276 442C515.753 439 513.578 437.5 513.578 443C509.228 437 511.947 402.5 507.054 382.5C502.161 362.5 497.268 351 495.637 340.5C491.832 335 490.745 328.5 490.745 328.5C490.745 334.5 491.107 339 490.745 340.5C490.745 350.5 485.671 372 483.134 382.5C483.134 395.5 482.59 432.5 479.872 443C473.348 439 472.805 440.333 471.174 443C468.999 436 471.174 396.5 471.174 382.5C468.999 361 470.976 356.5 468.999 336.5C467.912 325.5 469.533 313.167 470.439 308.5" stroke="black" stroke-linecap="round" stroke-linejoin="round"/>
<path d="M514.121 313.5C506.439 317 479.939 317 469 315.5" stroke="black"/>
<path d="M507.439 310.5C497.939 312 481.939 311.5 478.439 310.5" stroke="black" stroke-linecap="round" stroke-linejoin="round"/>
<path d="M490.201 314.75C489.483 314.75 488.864 314.21 488.864 313.5C488.864 312.79 489.483 312.25 490.201 312.25C490.92 312.25 491.538 312.79 491.538 313.5C491.538 314.21 490.92 314.75 490.201 314.75Z" stroke="black" stroke-width="0.5"/>
<path d="M512.939 208.569C516.539 238.169 471.939 280.403 451.939 294.069" stroke="black" stroke-linecap="round" stroke-linejoin="round"/>
<path d="M510.939 206.569C510.939 238.569 466.939 273.403 446.939 287.069" stroke="black" stroke-linecap="round" stroke-linejoin="round"/>
<path d="M512.939 208.26C521.611 201.309 522.209 200.522 522.209 200.522C526.972 202.435 527.822 199.137 527.652 197.249C528.498 194.462 531.014 193.269 532.735 193.983C537.154 192.669 530.107 185.146 528.48 187.667C527.843 191.421 524.956 193.128 523.275 192.043C519.914 189.875 518.26 193.588 518.86 196.93C509.192 205.568 506.173 208.08 504.939 209.069" stroke="black" stroke-linecap="round" stroke-linejoin="round"/>
<path d="M460.939 298.069C447.119 339.027 429.372 303.377 420.34 281.682C416.159 269.558 423.939 247.569 447.439 256.57C455.939 258.569 455.606 254.069 456.939 253.569" stroke="black" stroke-linecap="round" stroke-linejoin="round"/>
<circle r="21.5" transform="matrix(-1 0 0 1 491.439 186.569)" stroke="black"/>
<path d="M511.439 195C513.273 190.5 521.939 181 508.939 173.5C514.939 172.5 503.439 160.5 500.939 167C494.439 159 473.939 157 482.439 165C470.939 161.5 471.039 165.2 471.439 172C470.606 173.667 468.439 177 459.439 174C461.939 177 471.439 190 481.439 179C484.439 179.833 495.439 186.5 498.439 177C499.606 177.167 510.64 172 507.439 182.5C505.939 189.5 511.439 183.5 511.439 195Z" fill="black" stroke="black"/>
<path d="M917 47.7249C917 42.6876 912.4 38.9038 907.458 39.875L742.458 72.2966C738.706 73.0338 736 76.3228 736 80.1464V142.833C736 146.963 739.145 150.415 743.257 150.798L908.257 166.185C912.949 166.622 917 162.931 917 158.219V47.7249Z" fill="#252121"/>
<path d="M909 54.97C909 51.8576 906.187 49.5014 903.123 50.0476L747.623 77.7652C745.237 78.1903 743.5 80.2646 743.5 82.6876V137.405C743.5 140.003 745.49 142.168 748.079 142.387L903.579 155.541C906.496 155.788 909 153.487 909 150.559V54.97Z" fill="#6A3CA3"/>
<path d="M851.389 168.371C851.725 165.816 849.873 163.491 847.307 163.249L784.317 157.295C782.791 157.15 781.424 158.24 781.224 159.76C781.021 161.301 782.091 162.72 783.629 162.949L846.208 172.278C848.723 172.653 851.058 170.893 851.389 168.371Z" fill="#252121"/>
<path d="M726.246 141.358C724.958 138.446 726.907 138.518 732.48 134.621C732.48 134.621 736.303 131.812 734.002 124.674C732.917 127.826 728.712 134.209 724 131C727.516 127.24 715.5 124.674 716.854 131.777C710.318 121.276 685.878 130.204 697.327 139.647C693.205 136.248 683.526 144.096 692.045 146.078C688.284 147.991 684.262 149.637 687.853 154.259C688.927 157.59 693.375 171.391 704.104 173.711M726.246 141.358C726.577 146.295 716.073 146.738 712.922 145.653C708.954 150.294 708.407 154.463 711.215 158.286C704.584 157.271 705.091 153.955 702.436 150.609C702.389 155.352 702.777 158.729 701.221 161.507C696.891 167.631 701.434 171.945 704.104 173.711M726.246 141.358C746.411 164.802 717.933 182.387 704.104 173.711" stroke="black" stroke-linejoin="round"/>
<path d="M732.48 134.621C732.48 134.621 736.303 131.812 734.002 124.674C732.917 127.826 728.712 134.209 724 131C727.516 127.24 715.5 124.674 716.855 131.777C710.318 121.276 685.878 130.204 697.327 139.647C693.206 136.248 683.527 144.096 692.046 146.078C688.284 147.991 684.262 149.637 687.853 154.259C686.902 158.339 688.6 167.9 703 173.5C700.667 171.667 697.044 166.701 701.221 161.507C702.778 158.729 702.389 155.352 702.437 150.609C704.926 153.747 705.44 155.301 707.557 158.781C707.681 159.026 707.828 159.266 708 159.5C709.6 157.9 711 158 711 158C708.205 154.584 709.618 150.204 711.392 147.504C711.889 146.878 712.404 146.259 712.922 145.653C716.074 146.738 726.577 146.295 726.247 141.358C724.958 138.446 726.907 138.518 732.48 134.621Z" fill="black"/>
<path d="M712.922 145.653C716.074 146.738 726.577 146.295 726.247 141.358C724.958 138.446 726.907 138.518 732.48 134.621C732.48 134.621 736.303 131.812 734.002 124.674C732.917 127.826 728.712 134.209 724 131C727.516 127.24 715.5 124.674 716.855 131.777C710.318 121.276 685.878 130.204 697.327 139.647C693.206 136.248 683.527 144.096 692.046 146.078C688.284 147.991 684.262 149.637 687.853 154.259C686.902 158.339 688.6 167.9 703 173.5C700.667 171.667 697.044 166.701 701.221 161.507C702.778 158.729 702.389 155.352 702.437 150.609C705.091 153.955 705.5 155.5 708 159.5M712.922 145.653C708.954 150.294 705.192 155.677 708 159.5M712.922 145.653C710.781 147.602 707.4 153.6 711 158C711 158 709.6 157.9 708 159.5" stroke="black" stroke-linejoin="round"/>
<path d="M733.99 170.632C734.404 169.753 735.931 164.91 732.697 162.721C730.11 161.974 727.473 165.755 721.453 165.854C715.934 165.945 714.965 157.304 708 158C708.5 161 703.331 169.081 709.5 175.5C718.853 178.586 728.913 185.208 731.402 179.935C730.241 178.376 730.656 177.497 729.163 172.621C728.652 170.948 730.607 171.975 732.198 177.845C733.093 176.751 734.786 173.567 731.303 168.89C732.348 169.288 732.846 169.238 733.99 170.632Z" fill="black"/>
<path d="M727.324 159.238C727.183 157.83 731.454 155.308 733.742 158.094C734.339 159.039 734.448 160.134 732.498 160.731C729.861 159.487 726.824 164.108 723.692 163.118C722.568 162.763 722.199 163.267 720.309 159.436C723.543 161.625 727.045 160.471 727.324 159.238Z" fill="black"/>
<path d="M733.99 170.632C734.404 169.753 735.931 164.91 732.697 162.721C730.11 161.974 727.473 165.755 721.453 165.854C715.934 165.945 714.965 157.304 708 158C708.5 161 703.331 169.081 709.5 175.5C718.853 178.586 728.913 185.208 731.402 179.935C730.241 178.376 730.656 177.497 729.163 172.621C728.652 170.948 730.607 171.975 732.198 177.845C733.093 176.751 734.786 173.567 731.303 168.89C732.348 169.288 732.846 169.238 733.99 170.632Z" stroke="black"/>
<path d="M727.324 159.238C727.183 157.83 731.454 155.308 733.742 158.094C734.339 159.039 734.448 160.134 732.498 160.731C729.861 159.487 726.824 164.108 723.692 163.118C722.568 162.763 722.199 163.267 720.309 159.436C723.543 161.625 727.045 160.471 727.324 159.238Z" stroke="black"/>
<path d="M729.095 148.432C729.062 148.092 728.705 147.885 728.393 148.025L720.484 151.568C720.174 151.707 720.09 152.108 720.317 152.36L723.115 155.457C723.256 155.613 723.479 155.664 723.673 155.586L729.217 153.345C729.422 153.262 729.549 153.053 729.527 152.832L729.095 148.432Z" stroke="black"/>
<path d="M720.5 152C714.5 155.5 711.5 155.5 710.5 157" stroke="black"/>
<path d="M707.538 446.456C711.412 443.444 712.208 442.086 710.63 441.369C709.052 440.652 707.538 445.022 707.538 446.456Z" stroke="black"/>
<path d="M707.567 446.331C708.256 441.511 701.542 439.875 701.541 442.888C701.541 445.04 704.124 445.471 707.567 446.331Z" stroke="black"/>
<path d="M695 440.5C696 443.5 693.764 454.204 693.764 454.204C695.916 455.065 710.408 455.065 719.59 454.204C722 448.695 713.277 447.03 706.677 446.887" stroke="black" stroke-linecap="round" stroke-linejoin="round"/>
<path d="M706.677 446.887C697.638 448.608 697.428 448.009 694.846 446" stroke="black"/>
<path d="M747.191 195.961C747.191 195.961 758.071 186.905 758.867 157.464C751.874 156.474 751.866 159.14 750.616 154.514C744.373 161.495 742.304 177.607 733.754 183.678C725.003 192.813 708.273 201.737 698.474 203.181C703.374 205.313 711.131 207.927 701.284 219.153C720.81 218.007 729.155 216.706 747.191 195.961Z" fill="#6A3CA3"/>
<path d="M701.497 180.766C701.497 186.945 714.594 186.945 716.231 180.766C717.422 176.273 727.147 199.864 724.963 207.166C728.238 234.69 724.174 276.325 718 282.5C713 287.5 676.066 299.735 661.658 290.298C659.475 277.941 677 192 683.5 180.766C687.415 174 699.314 174.026 701.497 180.766Z" fill="#6A3CA3"/>
<path d="M662 290C669.5 297.5 690 290.513 699 282C717.5 264.5 723 269.5 720.5 277.5C718.5 282 718 283 710.5 286" stroke="black" stroke-linecap="round" stroke-linejoin="round"/>
<path d="M756 141.5C756.333 139.167 760.067 130.864 762.567 132.114C763.567 132.614 763.067 136.814 761.067 139.614C763.413 139.123 766.333 140.667 767.5 141.5" stroke="black" stroke-linecap="round" stroke-linejoin="round"/>
<path d="M707 282.5C711 293.5 708.135 304.5 705.5 320.5C698.5 349 691.5 353.5 679 373C671 400 646 420 638.5 429.5C636.1 426.3 638 421 634 423.5C640.5 414 652.5 382.833 666 367.5C672.5 335 670 335 679 320.5C674 319.5 673 316.5 673 316.5C668.5 311 672 304 675 293" stroke="black" stroke-linecap="round" stroke-linejoin="round"/>
<path d="M703 330C703 346 704.333 365.667 702 379.5C706 399 704.333 426.167 702 440.5C697.2 436.1 695 437 695 440.5C690.5 421.5 690 400.5 690 379.5C687 373 686.5 370 686.5 366.5" stroke="black" stroke-linecap="round" stroke-linejoin="round"/>
<path d="M633.771 440.63C638.55 439.514 639.348 439.113 638.214 437.801C637.081 436.489 634.371 439.327 633.771 440.63Z" stroke="black"/>
<path d="M633.357 441.028C635.998 436.937 630.584 432.643 629.323 435.38C628.423 437.335 630.589 438.806 633.357 441.028Z" stroke="black"/>
<path d="M630.223 454.5C630.223 454.5 628.223 454.5 634.222 454.5C641.223 455 644.223 451 636.222 448.5C632.889 447.667 635.5 443.5 632.5 440.5C628.5 441.3 626.315 437.5 625.722 435.5M632 426C630.833 428 627.544 432.1 623.722 432.5C622.389 433 620.782 433.5 619.722 437.5C618.344 442.7 622.333 444.667 624.5 445" stroke="black" stroke-linecap="round" stroke-linejoin="round"/>
</svg>
